<svg width="32" height="32" viewBox="0 0 32 32" fill="none" xmlns="http://www.w3.org/2000/svg">
<path d="M31.68 28.2274H0.32C0.144 28.2274 0 28.4161 0 28.6466V31.5808C0 31.8114 0.144 32 0.32 32H31.68C31.856 32 32 31.8114 32 31.5808V28.6466C32 28.4161 31.856 28.2274 31.68 28.2274ZM2.148 21.6673L3.736 23.737C3.86 23.8994 4.064 23.8994 4.188 23.737L13.576 11.4814L17.48 16.5796C17.7205 16.8918 18.0454 17.0669 18.384 17.0669C18.7226 17.0669 19.0475 16.8918 19.288 16.5796L29.856 2.78877C29.98 2.62634 29.98 2.35911 29.856 2.19668L28.268 0.12177C28.2079 0.043761 28.1266 0 28.042 0C27.9574 0 27.8761 0.043761 27.816 0.12177L18.388 12.435L14.48 7.33681C14.2395 7.02465 13.9146 6.84952 13.576 6.84952C13.2374 6.84952 12.9125 7.02465 12.672 7.33681L2.148 21.0753C2.11808 21.114 2.09432 21.1601 2.07811 21.2109C2.06189 21.2617 2.05354 21.3162 2.05354 21.3713C2.05354 21.4264 2.06189 21.4809 2.07811 21.5317C2.09432 21.5826 2.11808 21.6286 2.148 21.6673Z" fill="#5241EB"/>
</svg>
